<svg width="24" height="25" viewBox="0 0 24 25" fill="none" xmlns="http://www.w3.org/2000/svg">
<path d="M6.69401 14.9379C6.63711 14.9948 6.5989 15.0671 6.58264 15.1452L6.00793 18.0197C5.9811 18.153 6.02337 18.2904 6.11929 18.3872C6.19652 18.4644 6.30057 18.5059 6.40706 18.5059C6.43307 18.5059 6.4599 18.5034 6.48672 18.4977L9.3603 17.923C9.43996 17.9067 9.51231 17.8685 9.5684 17.8116L16 11.3796L13.1264 8.50586L6.69401 14.9379Z" fill="#384255"/>
<path d="M18.3523 6.15295C17.4896 5.29016 16.0864 5.29016 15.2246 6.15295L14 7.37768L17.1278 10.5059L18.3523 9.28113C18.77 8.86434 19 8.30861 19 7.71749C19 7.12636 18.77 6.57064 18.3523 6.15295Z" fill="#384255"/>
</svg>
