<svg width="24" height="25" viewBox="0 0 24 25" fill="none" xmlns="http://www.w3.org/2000/svg">
<path d="M11.625 19.4941C11.625 19.4941 17.25 14.1635 17.25 10.1191C17.25 8.6273 16.6574 7.19656 15.6025 6.14166C14.5476 5.08677 13.1168 4.49414 11.625 4.49414C10.1332 4.49414 8.70242 5.08677 7.64752 6.14166C6.59263 7.19656 6 8.6273 6 10.1191C6 14.1635 11.625 19.4941 11.625 19.4941ZM11.625 12.9316C10.8791 12.9316 10.1637 12.6353 9.63626 12.1079C9.10882 11.5804 8.8125 10.8651 8.8125 10.1191C8.8125 9.37322 9.10882 8.65785 9.63626 8.1304C10.1637 7.60296 10.8791 7.30664 11.625 7.30664C12.3709 7.30664 13.0863 7.60296 13.6137 8.1304C14.1412 8.65785 14.4375 9.37322 14.4375 10.1191C14.4375 10.8651 14.1412 11.5804 13.6137 12.1079C13.0863 12.6353 12.3709 12.9316 11.625 12.9316Z" fill="#909CB5"/>
</svg>
