<svg width="24" height="24" viewBox="0 0 24 24" fill="none" xmlns="http://www.w3.org/2000/svg">
<path d="M16.6671 11.9998C16.2984 11.9998 16.0004 12.2984 16.0004 12.6664V17.9999C16.0004 18.3673 15.7017 18.6666 15.3337 18.6666H6.00006C5.63205 18.6666 5.33337 18.3673 5.33337 17.9999V8.66632C5.33337 8.29898 5.63205 7.99963 6.00006 7.99963H11.3336C11.7022 7.99963 12.0002 7.70096 12.0002 7.33295C12.0002 6.96494 11.7022 6.66626 11.3336 6.66626H6.00006C4.89736 6.66626 4 7.56362 4 8.66632V17.9999C4 19.1026 4.89736 20 6.00006 20H15.3337C16.4364 20 17.3337 19.1026 17.3337 17.9999V12.6664C17.3337 12.2978 17.0357 11.9998 16.6671 11.9998Z" fill="white"/>
<path d="M10.2528 11.3925C10.2061 11.4392 10.1748 11.4985 10.1614 11.5625L9.6901 13.9199C9.66809 14.0293 9.70276 14.1419 9.78143 14.2213C9.84477 14.2846 9.9301 14.3186 10.0174 14.3186C10.0388 14.3186 10.0608 14.3166 10.0828 14.3119L12.4395 13.8406C12.5049 13.8272 12.5642 13.7959 12.6102 13.7492L17.885 8.47442L15.5283 6.11768L10.2528 11.3925Z" fill="white"/>
<path d="M19.5138 4.48752C18.8638 3.83749 17.8064 3.83749 17.1571 4.48752L16.2344 5.41021L18.5911 7.76695L19.5138 6.84425C19.8285 6.53025 20.0018 6.11157 20.0018 5.66622C20.0018 5.22087 19.8285 4.80219 19.5138 4.48752Z" fill="white"/>
</svg>
