<svg width="661" height="68" viewBox="0 0 661 68" fill="none" xmlns="http://www.w3.org/2000/svg">
<path d="M394.977 27.0913H371.712L375.99 19.2799H399.256L394.977 27.0913ZM406.793 8.89486H378.679L358.429 45.965H351.34L375.868 1.0835H411.031L406.793 8.89486ZM401.008 45.965H393.918L418.446 1.0835H425.577L401.008 45.965ZM467.625 8.89486H451.612L431.322 45.965H424.313L444.564 8.89486H428.429L432.707 1.0835H471.903L467.625 8.89486ZM495.005 42.0819C493.457 44.9716 491.746 46.4165 489.953 46.4165C488.649 46.4165 487.671 45.5135 487.019 43.7074L476.711 14.8098L459.68 45.965H452.631L475.041 4.9666C475.611 3.88294 476.385 2.9799 477.322 2.21231C478.259 1.44472 479.196 1.0835 480.134 1.0835C481.437 1.0835 482.375 1.85109 482.945 3.38627L493.294 32.2387L510.325 1.0835H517.415L495.005 42.0819ZM546.14 27.0913H522.875L527.153 19.2799H550.418L546.14 27.0913ZM537.706 45.965H502.502L527.031 1.0835H562.234L557.956 8.89486H529.883L513.87 38.1085H541.984L537.706 45.965ZM596.745 32.1032C594.422 36.3475 591.203 39.734 587.047 42.3528C583.095 44.7459 579.143 45.965 575.232 45.965H544.143L548.422 38.1085H579.51C581.425 38.1085 583.38 37.6569 585.336 36.7087C587.659 35.4896 589.329 33.9093 590.429 31.8774C591.529 29.8907 591.529 28.3104 590.47 27.2267C589.574 26.3237 588.148 25.827 586.233 25.827H567.001C563.456 25.827 561.093 24.7885 559.871 22.6212C558.608 20.3184 559.015 17.2481 561.093 13.4553C563.171 9.66245 566.064 6.63724 569.894 4.28932C573.48 2.16715 577.024 1.0835 580.528 1.0835H611.25L607.012 8.89486H576.291C574.906 8.89486 573.561 9.30123 572.135 10.1591C570.709 10.9719 569.65 12.1007 568.875 13.5004C568.06 14.9453 567.938 16.0741 568.468 16.8417C568.998 17.6544 569.935 18.0156 571.279 18.0156H590.47C594.422 18.0156 597.03 19.2799 598.293 21.7633C599.597 24.3821 599.108 27.8137 596.745 32.1032ZM646.494 32.1032C644.171 36.3475 640.953 39.734 636.797 42.3528C632.844 44.7459 628.892 45.965 624.981 45.965H593.893L598.171 38.1085H629.259C631.174 38.1085 633.13 37.6569 635.085 36.7087C637.408 35.4896 639.078 33.9093 640.178 31.8774C641.279 29.8907 641.279 28.3104 640.219 27.2267C639.323 26.3237 637.897 25.827 635.982 25.827H616.75C613.206 25.827 610.842 24.7885 609.62 22.6212C608.357 20.3184 608.764 17.2481 610.842 13.4553C612.92 9.66245 615.813 6.63724 619.643 4.28932C623.229 2.16715 626.773 1.0835 630.278 1.0835H660.999L656.762 8.89486H626.04C624.655 8.89486 623.31 9.30123 621.884 10.1591C620.458 10.9719 619.399 12.1007 618.625 13.5004C617.81 14.9453 617.687 16.0741 618.217 16.8417C618.747 17.6544 619.684 18.0156 621.029 18.0156H640.219C644.171 18.0156 646.779 19.2799 648.042 21.7633C649.346 24.3821 648.857 27.8137 646.494 32.1032Z" fill="#AF4642"/>
<path d="M160.901 61.768C160.901 63.4838 160.372 64.9287 159.394 66.0575C158.375 67.2315 157.071 67.7733 155.523 67.7733H149.574V55.9885H155.523C157.112 55.9885 158.375 56.5304 159.394 57.614C160.412 58.6525 160.901 60.0522 160.901 61.768ZM159.027 61.9486C159.027 60.8198 158.701 59.8716 158.049 59.1492C157.397 58.4268 156.542 58.0655 155.523 58.0655H151.408V65.7415H155.523C156.542 65.7415 157.397 65.3802 158.049 64.6578C158.701 63.9805 159.027 63.0775 159.027 61.9486Z" fill="white"/>
<path d="M174.511 67.7733H172.637V55.9885H174.511V67.7733ZM198.347 64.1611C198.347 65.2448 197.98 66.1478 197.246 66.8251C196.595 67.4572 195.739 67.7733 194.68 67.7733H186.571V65.7414H194.68C195.209 65.7414 195.657 65.606 196.024 65.3351C196.432 65.019 196.635 64.6126 196.635 64.0708C196.635 63.5741 196.432 63.1678 195.983 62.8517C195.617 62.6259 195.209 62.4905 194.68 62.4905H189.668C188.772 62.4905 187.997 62.2196 187.386 61.6777C186.694 61.0456 186.368 60.2329 186.368 59.2395C186.368 58.2461 186.694 57.4786 187.386 56.8464C187.997 56.3046 188.772 55.9885 189.668 55.9885H197.695V58.0655H189.668C189.342 58.0655 189.016 58.1558 188.772 58.3816C188.527 58.6074 188.405 58.8783 188.405 59.2847C188.405 59.6459 188.527 59.9168 188.772 60.1425C189.016 60.3683 189.342 60.4586 189.668 60.4586H194.68C195.739 60.4586 196.595 60.7747 197.246 61.452C197.98 62.1293 198.347 63.0323 198.347 64.1611ZM219.452 58.0655H215.296V67.7733H213.463V58.0655H209.266V55.9885H219.452V58.0655ZM243.166 67.7733H240.395L237.421 64.4772H233.428V62.4453H238.399C239.091 62.4453 239.662 62.2647 240.151 61.9486C240.68 61.5423 240.925 61.0004 240.925 60.278C240.925 58.788 240.11 58.0655 238.399 58.0655H232.328V67.7733H230.494V55.9885H238.113C239.499 55.9885 240.599 56.3497 241.414 56.9819C242.392 57.7495 242.88 58.8331 242.88 60.278C242.88 61.2714 242.595 62.1293 242.025 62.8517C241.536 63.4838 240.802 63.9805 239.906 64.2063L243.166 67.7733ZM256.978 67.7733H255.104V55.9885H256.978V67.7733ZM281.343 64.3417C281.343 64.8384 281.221 65.3351 281.017 65.7866C280.325 67.096 279.021 67.7733 277.106 67.7733H269.487V55.9885H277.106C278.939 55.9885 280.203 56.6207 280.936 57.8849C281.221 58.3816 281.343 58.9234 281.343 59.5104C281.343 60.4586 280.977 61.2714 280.243 61.9486C280.977 62.5808 281.343 63.3935 281.343 64.3417ZM279.551 59.4653C279.551 58.9686 279.306 58.6074 278.776 58.3365C278.369 58.1558 277.921 58.0204 277.391 58.0204H271.361V65.6963H277.391C277.921 65.6963 278.369 65.606 278.736 65.4705C279.306 65.1996 279.551 64.8384 279.551 64.3869C279.551 63.8902 279.306 63.529 278.736 63.2581C278.328 63.0775 277.88 62.9872 277.391 62.9872H272.42V60.9553H277.391C277.921 60.9553 278.369 60.8198 278.776 60.6392C279.306 60.3683 279.551 59.9619 279.551 59.4653ZM305.179 62.4905C305.179 64.3869 304.649 65.7866 303.631 66.6445C302.694 67.4121 301.39 67.7733 299.597 67.7733H298.986C297.193 67.7733 295.848 67.4121 294.952 66.6445C293.933 65.7866 293.404 64.3869 293.404 62.4905V55.9885H295.278V62.4905C295.278 63.8902 295.726 64.8384 296.582 65.2899C297.152 65.606 298.171 65.7414 299.597 65.7414C300.819 65.7414 301.675 65.5157 302.245 65.1093C302.938 64.6126 303.305 63.7547 303.305 62.4905V55.9885H305.179V62.4905ZM326.937 58.0655H322.74V67.7733H320.906V58.0655H316.71V55.9885H326.937V58.0655ZM340.301 67.7733H338.427V55.9885H340.301V67.7733ZM366.174 61.768C366.174 63.4838 365.685 64.9287 364.666 66.0575C363.648 67.2315 362.384 67.7733 360.836 67.7733H357.862C356.313 67.7733 355.05 67.2315 354.032 66.0575C353.013 64.9287 352.524 63.4838 352.524 61.768C352.524 60.0522 353.013 58.6525 353.991 57.614C355.01 56.5304 356.313 55.9885 357.862 55.9885H360.836C362.384 55.9885 363.688 56.5304 364.707 57.614C365.685 58.6525 366.174 60.0522 366.174 61.768ZM364.34 61.9486C364.34 60.8198 364.014 59.8716 363.362 59.1492C362.71 58.4268 361.855 58.0655 360.836 58.0655H357.862C356.843 58.0655 355.988 58.4268 355.336 59.1492C354.684 59.8716 354.358 60.8198 354.358 61.9486C354.358 63.0775 354.684 63.9805 355.336 64.6578C355.988 65.3802 356.843 65.7414 357.862 65.7414H360.836C361.855 65.7414 362.71 65.3802 363.362 64.6578C364.014 63.9805 364.34 63.0775 364.34 61.9486ZM388.257 66.78C388.257 67.5024 388.054 67.9088 387.565 67.9088C387.239 67.9088 386.831 67.683 386.424 67.1863L379.619 59.6007V67.7733H377.745V57.027C377.745 56.7561 377.827 56.5304 377.949 56.3046C378.112 56.124 378.275 55.9885 378.56 55.9885C378.886 55.9885 379.253 56.2143 379.619 56.6207L386.424 64.1611V55.9885H388.257V66.78ZM402.559 66.78C402.559 67.096 402.477 67.3669 402.314 67.5475C402.11 67.7282 401.907 67.8185 401.621 67.8185C401.336 67.8185 401.133 67.7282 400.929 67.5475C400.766 67.3669 400.684 67.096 400.684 66.78C400.684 66.4639 400.766 66.2381 400.929 66.0575C401.133 65.8318 401.336 65.7414 401.621 65.7414C401.907 65.7414 402.11 65.8318 402.314 66.0575C402.477 66.2381 402.559 66.4639 402.559 66.78ZM427.494 67.7733H424.724L421.749 64.4772H417.756V62.4453H422.768C423.42 62.4453 423.99 62.2647 424.479 61.9486C425.009 61.5423 425.253 61.0004 425.253 60.278C425.253 58.788 424.438 58.0655 422.768 58.0655H416.697V67.7733H414.823V55.9885H422.442C423.827 55.9885 424.927 56.3497 425.783 56.9819C426.72 57.7495 427.209 58.8331 427.209 60.278C427.209 61.2714 426.924 62.1293 426.353 62.8517C425.865 63.4838 425.131 63.9805 424.275 64.2063L427.494 67.7733ZM447.826 62.8517H441.755V60.7747H447.826V62.8517ZM448.315 67.7733H439.147V55.9885H448.315V58.0655H440.981V65.7414H448.315V67.7733ZM469.909 58.0655H465.713V67.7733H463.879V58.0655H459.683V55.9885H469.909V58.0655ZM494.764 67.7733H492.401L490.608 64.4772H485.555L486.696 62.4453H489.508L487.674 59.0589L482.866 67.7733H480.503L486.248 57.1173C486.411 56.8464 486.615 56.6207 486.859 56.3497C487.185 56.124 487.47 55.9885 487.715 55.9885C487.959 55.9885 488.245 56.0788 488.53 56.3497C488.774 56.5755 488.978 56.8464 489.141 57.1173L494.764 67.7733ZM507.761 67.7733H505.928V55.9885H507.761V67.7733ZM528.908 67.7733H519.74V55.9885H521.614V65.7414H528.908V67.7733ZM542.109 66.78C542.109 67.096 542.027 67.3669 541.824 67.5475C541.661 67.7282 541.416 67.8185 541.131 67.8185C540.887 67.8185 540.642 67.7282 540.479 67.5475C540.275 67.3669 540.194 67.096 540.194 66.78C540.194 66.4639 540.275 66.2381 540.479 66.0575C540.642 65.8318 540.887 65.7414 541.131 65.7414C541.416 65.7414 541.661 65.8318 541.824 66.0575C542.027 66.2381 542.109 66.4639 542.109 66.78ZM565.659 67.7733H559.67C558.122 67.7733 556.818 67.2315 555.84 66.0575C554.821 64.9287 554.292 63.4838 554.292 61.768C554.292 60.0522 554.821 58.6525 555.799 57.614C556.818 56.5304 558.081 55.9885 559.67 55.9885H565.659V58.0655H559.67C558.651 58.0655 557.796 58.4268 557.144 59.1492C556.492 59.8716 556.166 60.8198 556.166 61.9486C556.166 63.0775 556.492 63.9805 557.144 64.6578C557.796 65.3802 558.651 65.7414 559.67 65.7414H565.659V67.7733ZM586.072 67.7733H576.905V55.9885H578.738V65.7414H586.072V67.7733ZM609.338 62.4905C609.338 64.3869 608.808 65.7866 607.789 66.6445C606.893 67.4121 605.548 67.7733 603.796 67.7733H603.144C601.352 67.7733 600.048 67.4121 599.111 66.6445C598.092 65.7866 597.603 64.3869 597.603 62.4905V55.9885H599.437V62.4905C599.437 63.8902 599.885 64.8384 600.781 65.2899C601.352 65.606 602.329 65.7414 603.796 65.7414C604.978 65.7414 605.874 65.5157 606.445 65.1093C607.137 64.6126 607.463 63.7547 607.463 62.4905V55.9885H609.338V62.4905ZM633.458 64.3417C633.458 64.8384 633.336 65.3351 633.132 65.7866C632.44 67.096 631.136 67.7733 629.221 67.7733H621.602V55.9885H629.221C631.054 55.9885 632.318 56.6207 633.051 57.8849C633.336 58.3816 633.458 58.9234 633.458 59.5104C633.458 60.4586 633.092 61.2714 632.358 61.9486C633.092 62.5808 633.458 63.3935 633.458 64.3417ZM631.666 59.4653C631.666 58.9686 631.421 58.6074 630.891 58.3365C630.484 58.1558 630.036 58.0204 629.506 58.0204H623.476V65.6963H629.506C630.036 65.6963 630.484 65.606 630.851 65.4705C631.421 65.1996 631.666 64.8384 631.666 64.3869C631.666 63.8902 631.421 63.529 630.851 63.2581C630.443 63.0775 629.995 62.9872 629.506 62.9872H624.535V60.9553H629.506C630.036 60.9553 630.484 60.8198 630.891 60.6392C631.421 60.3683 631.666 59.9619 631.666 59.4653ZM656.724 64.1611C656.724 65.2448 656.357 66.1478 655.623 66.8251C654.972 67.4572 654.116 67.7733 653.057 67.7733H644.948V65.7414H653.057C653.586 65.7414 654.034 65.606 654.401 65.3351C654.809 65.019 655.053 64.6126 655.053 64.0708C655.053 63.5741 654.809 63.1678 654.36 62.8517C654.034 62.6259 653.586 62.4905 653.057 62.4905H648.045C647.149 62.4905 646.374 62.2196 645.763 61.6777C645.071 61.0456 644.745 60.2329 644.745 59.2395C644.745 58.2461 645.071 57.4786 645.763 56.8464C646.374 56.3046 647.149 55.9885 648.045 55.9885H656.072V58.0655H648.045C647.719 58.0655 647.393 58.1558 647.149 58.3816C646.904 58.6074 646.782 58.8783 646.782 59.2847C646.782 59.6459 646.904 59.9168 647.149 60.1425C647.393 60.3683 647.719 60.4586 648.045 60.4586H653.057C654.116 60.4586 654.972 60.7747 655.623 61.452C656.357 62.1293 656.724 63.0323 656.724 64.1611Z" fill="white"/>
<path d="M0 0.496826H30.7622L68.125 67.9997H37.3221L0 0.496826Z" fill="white"/>
<path d="M36.1836 0.496826H66.9865L104.349 67.9997H73.5464L36.1836 0.496826Z" fill="white"/>
<path d="M72.2773 0.496826H141.014L129.157 21.0863H83.6451L72.2773 0.496826Z" fill="#B44843"/>
<path d="M113.883 47.6361H98.0738L86.2578 26.2339H126.188L113.883 47.6361Z" fill="#B44843"/>
<path d="M171.739 44.746L147.129 0.0451524L155.563 0.0903048L174.02 33.187L178.869 24.6532L165.342 0.0451524L173.735 0.0903048L191.907 32.6903L209.957 0L218.514 0.0451524C210.161 15.0809 201.93 29.8909 193.741 44.746H190.074L183.066 32.2388C180.621 36.6186 178.339 40.6823 176.058 44.746H171.739Z" fill="#FEFEFE"/>
<path d="M200.383 44.7441L225.196 0.0883653L266.593 0.0432129L262.315 7.44821L260.889 7.40305H229.556L212.769 37.6552H245.365L241.413 44.7441H200.383Z" fill="#FEFEFE"/>
<path d="M296.418 44.746L321.068 0L329.584 0.0451524L308.641 37.7023H340.422L336.103 44.746H296.418Z" fill="#FEFEFE"/>
<path d="M249.398 44.746L260.644 24.292L273.193 1.67064L274.13 0L282.565 0.0451524L261.703 37.6571H293.158L289.084 44.746H249.398Z" fill="#FEFEFE"/>
<path d="M224.461 26.0076L228.25 18.738L255.427 18.8283L251.312 26.0527L224.461 26.0076Z" fill="#FEFEFE"/>
</svg>
