<svg width="21" height="20" viewBox="0 0 21 20" fill="none" xmlns="http://www.w3.org/2000/svg">
<g clip-path="url(#clip0_7448_12968)">
<path d="M8.1875 14.6768V18.5417C8.1875 18.8117 8.36151 19.0509 8.61919 19.1359C8.68361 19.1567 8.7497 19.1667 8.81496 19.1667C9.01072 19.1667 9.1998 19.0751 9.32027 18.9117L11.59 15.8351L8.1875 14.6768Z" fill="white"/>
<path d="M20.6824 0.115907C20.49 -0.0199262 20.2373 -0.0382595 20.0282 0.0709072L1.20438 9.86257C0.981841 9.97841 0.850492 10.2151 0.868898 10.4642C0.88814 10.7142 1.05463 10.9276 1.29139 11.0084L6.52441 12.7901L17.6689 3.29841L9.04513 13.6476L17.8153 16.6334C17.8806 16.6551 17.9492 16.6667 18.0178 16.6667C18.1316 16.6667 18.2445 16.6359 18.3441 16.5759C18.503 16.4792 18.611 16.3167 18.6386 16.1342L20.9393 0.717574C20.9736 0.484241 20.8748 0.252574 20.6824 0.115907Z" fill="white"/>
</g>
<defs>
<clipPath id="clip0_7448_12968">
<rect width="20.0787" height="20" fill="white" transform="translate(0.867188)"/>
</clipPath>
</defs>
</svg>
